<svg width="101" height="60" viewBox="0 0 101 60" fill="none" xmlns="http://www.w3.org/2000/svg">
<path d="M8 15L2 18.4641L2 11.5359L8 15Z" fill="#0000FF"/>
<rect x="17" y="3" width="24" height="24" fill="#0000FF"/>
<path d="M19.104 19V10.24H21.924C22.468 10.24 22.94 10.348 23.34 10.564C23.74 10.772 24.048 11.068 24.264 11.452C24.488 11.836 24.6 12.292 24.6 12.82C24.6 13.34 24.488 13.796 24.264 14.188C24.048 14.572 23.74 14.872 23.34 15.088C22.94 15.296 22.468 15.4 21.924 15.4H20.184V19H19.104ZM20.184 14.428H21.924C22.396 14.428 22.772 14.284 23.052 13.996C23.34 13.7 23.484 13.308 23.484 12.82C23.484 12.324 23.34 11.932 23.052 11.644C22.772 11.356 22.396 11.212 21.924 11.212H20.184V14.428ZM25.7953 19L28.0753 10.24H29.5273L31.7953 19H30.7033L30.1273 16.672H27.4753L26.8993 19H25.7953ZM27.6913 15.76H29.8993L29.2273 13.06C29.0993 12.548 28.9993 12.12 28.9273 11.776C28.8553 11.432 28.8113 11.208 28.7953 11.104C28.7793 11.208 28.7353 11.432 28.6633 11.776C28.5913 12.12 28.4913 12.544 28.3633 13.048L27.6913 15.76ZM35.9906 19.12C35.4546 19.12 34.9866 19.016 34.5866 18.808C34.1946 18.592 33.8906 18.292 33.6746 17.908C33.4586 17.516 33.3506 17.06 33.3506 16.54V12.7C33.3506 12.172 33.4586 11.716 33.6746 11.332C33.8906 10.948 34.1946 10.652 34.5866 10.444C34.9866 10.228 35.4546 10.12 35.9906 10.12C36.5346 10.12 37.0026 10.228 37.3946 10.444C37.7866 10.652 38.0906 10.948 38.3066 11.332C38.5226 11.716 38.6306 12.172 38.6306 12.7V16.54C38.6306 17.06 38.5226 17.516 38.3066 17.908C38.0906 18.292 37.7826 18.592 37.3826 18.808C36.9906 19.016 36.5266 19.12 35.9906 19.12ZM35.9906 18.196C36.4706 18.196 36.8546 18.044 37.1426 17.74C37.4386 17.428 37.5866 17.028 37.5866 16.54V12.7C37.5866 12.212 37.4386 11.816 37.1426 11.512C36.8546 11.2 36.4706 11.044 35.9906 11.044C35.5106 11.044 35.1226 11.2 34.8266 11.512C34.5386 11.816 34.3946 12.212 34.3946 12.7V16.54C34.3946 17.028 34.5386 17.428 34.8266 17.74C35.1226 18.044 35.5106 18.196 35.9906 18.196ZM35.9906 15.328C35.7746 15.328 35.5986 15.26 35.4626 15.124C35.3346 14.988 35.2706 14.808 35.2706 14.584C35.2706 14.368 35.3346 14.196 35.4626 14.068C35.5986 13.932 35.7746 13.864 35.9906 13.864C36.2066 13.864 36.3786 13.932 36.5066 14.068C36.6426 14.196 36.7106 14.368 36.7106 14.584C36.7106 14.808 36.6426 14.988 36.5066 15.124C36.3786 15.26 36.2066 15.328 35.9906 15.328Z" fill="white"/>
<rect x="50" y="15" width="24" height="30" fill="#0000FF"/>
<path d="M56.104 34V25.24H58.924C59.468 25.24 59.94 25.348 60.34 25.564C60.74 25.772 61.048 26.068 61.264 26.452C61.488 26.836 61.6 27.292 61.6 27.82C61.6 28.34 61.488 28.796 61.264 29.188C61.048 29.572 60.74 29.872 60.34 30.088C59.94 30.296 59.468 30.4 58.924 30.4H57.184V34H56.104ZM57.184 29.428H58.924C59.396 29.428 59.772 29.284 60.052 28.996C60.34 28.7 60.484 28.308 60.484 27.82C60.484 27.324 60.34 26.932 60.052 26.644C59.772 26.356 59.396 26.212 58.924 26.212H57.184V29.428ZM65.8433 34.12C65.3153 34.12 64.8553 34.02 64.4633 33.82C64.0793 33.62 63.7793 33.332 63.5633 32.956C63.3553 32.572 63.2513 32.12 63.2513 31.6V27.64C63.2513 27.112 63.3553 26.66 63.5633 26.284C63.7793 25.908 64.0793 25.62 64.4633 25.42C64.8553 25.22 65.3153 25.12 65.8433 25.12C66.3713 25.12 66.8273 25.224 67.2113 25.432C67.5953 25.632 67.8913 25.92 68.0993 26.296C68.3073 26.672 68.4113 27.12 68.4113 27.64H67.3313C67.3313 27.144 67.1993 26.764 66.9353 26.5C66.6793 26.228 66.3153 26.092 65.8433 26.092C65.3713 26.092 64.9993 26.224 64.7273 26.488C64.4633 26.752 64.3313 27.132 64.3313 27.628V31.6C64.3313 32.096 64.4633 32.48 64.7273 32.752C64.9993 33.016 65.3713 33.148 65.8433 33.148C66.3153 33.148 66.6793 33.016 66.9353 32.752C67.1993 32.48 67.3313 32.096 67.3313 31.6H68.4113C68.4113 32.112 68.3073 32.56 68.0993 32.944C67.8913 33.32 67.5953 33.612 67.2113 33.82C66.8273 34.02 66.3713 34.12 65.8433 34.12Z" fill="white"/>
<line x1="9" y1="15" x2="16" y2="15" stroke="white" stroke-width="2"/>
<line x1="42" y1="20" x2="49" y2="20" stroke="white" stroke-width="2"/>
<line x1="75" y1="30" x2="91" y2="30" stroke="white" stroke-width="2"/>
<path d="M42 10L83 10V26L91 26" stroke="white" stroke-width="2"/>
<path d="M93 7V36" stroke="white" stroke-width="2" stroke-linecap="round"/>
<path d="M87 7L93 15L99 7" stroke="white" stroke-width="2" stroke-linecap="round"/>
<path d="M8 45L2 48.4641L2 41.5359L8 45Z" fill="#0000FF"/>
<rect x="17" y="33" width="24" height="24" fill="#0000FF"/>
<path d="M19.104 49V40.24H21.924C22.468 40.24 22.94 40.348 23.34 40.564C23.74 40.772 24.048 41.068 24.264 41.452C24.488 41.836 24.6 42.292 24.6 42.82C24.6 43.34 24.488 43.796 24.264 44.188C24.048 44.572 23.74 44.872 23.34 45.088C22.94 45.296 22.468 45.4 21.924 45.4H20.184V49H19.104ZM20.184 44.428H21.924C22.396 44.428 22.772 44.284 23.052 43.996C23.34 43.7 23.484 43.308 23.484 42.82C23.484 42.324 23.34 41.932 23.052 41.644C22.772 41.356 22.396 41.212 21.924 41.212H20.184V44.428ZM25.7953 49L28.0753 40.24H29.5273L31.7953 49H30.7033L30.1273 46.672H27.4753L26.8993 49H25.7953ZM27.6913 45.76H29.8993L29.2273 43.06C29.0993 42.548 28.9993 42.12 28.9273 41.776C28.8553 41.432 28.8113 41.208 28.7953 41.104C28.7793 41.208 28.7353 41.432 28.6633 41.776C28.5913 42.12 28.4913 42.544 28.3633 43.048L27.6913 45.76ZM33.4706 49V48.016H35.8466V41.14L33.4706 42.916V41.716L35.4506 40.24H36.9266V48.016H38.8706V49H33.4706Z" fill="white"/>
<line x1="9" y1="45" x2="16" y2="45" stroke="white" stroke-width="2"/>
<line x1="42" y1="40" x2="49" y2="40" stroke="white" stroke-width="2"/>
<path d="M42 50L83 50V34L91 34" stroke="white" stroke-width="2"/>
</svg>
