<svg width="1000" height="964" viewBox="0 0 1000 964" fill="none" xmlns="http://www.w3.org/2000/svg">
<g clip-path="url(#clip0_2095_2)">
<path d="M980.777 374.008L979.398 370.483L845.861 21.9806C843.144 15.1501 838.333 9.35582 832.119 5.42904C825.901 1.56897 818.648 -0.290167 811.34 0.102656C804.031 0.495478 797.02 3.12134 791.251 7.6257C785.547 12.2594 781.408 18.5382 779.399 25.6076L689.234 301.467H324.129L233.964 25.6076C232.008 18.4997 227.861 12.1894 222.112 7.5746C216.343 3.07024 209.332 0.444382 202.023 0.0515595C194.715 -0.341263 187.462 1.51787 181.244 5.37794C175.043 9.32058 170.237 15.1098 167.502 21.9295L33.71 370.279L32.3818 373.804C13.1586 424.031 10.7858 479.146 25.6212 530.84C40.4565 582.533 71.6958 628.002 114.629 660.391L115.089 660.749L116.315 661.617L319.735 813.953L420.373 890.121L481.675 936.404C488.846 941.848 497.602 944.796 506.605 944.796C515.608 944.796 524.364 941.848 531.534 936.404L592.837 890.121L693.474 813.953L898.121 660.698L898.632 660.289C941.469 627.894 972.635 582.472 987.448 530.848C1002.26 479.224 999.92 424.187 980.777 374.008Z" fill="#E24329"/>
<path d="M980.777 374.008L979.398 370.483C914.33 383.839 853.015 411.4 799.833 451.198L506.554 672.958C606.425 748.513 693.372 814.157 693.372 814.157L898.019 660.902L898.53 660.493C941.428 628.1 972.643 582.648 987.476 530.98C1002.31 479.312 999.958 424.224 980.777 374.008Z" fill="#FC6D26"/>
<path d="M319.736 814.157L420.373 890.325L481.675 936.608C488.846 942.053 497.602 945 506.605 945C515.608 945 524.364 942.053 531.534 936.608L592.837 890.325L693.474 814.157C693.474 814.157 606.425 748.309 506.554 672.958C406.682 748.309 319.736 814.157 319.736 814.157Z" fill="#FCA326"/>
<path d="M213.223 451.198C160.084 411.318 98.7823 383.685 33.71 370.279L32.3818 373.804C13.1586 424.031 10.7858 479.146 25.6212 530.84C40.4565 582.533 71.6958 628.002 114.629 660.391L115.089 660.749L116.315 661.617L319.735 813.953C319.735 813.953 406.58 748.309 506.554 672.754L213.223 451.198Z" fill="#FC6D26"/>
<path d="M818.583 427H666.083C652.046 427 640.667 438.379 640.667 452.417V503.25C640.667 517.287 652.046 528.667 666.083 528.667H818.583C832.621 528.667 844 517.287 844 503.25V452.417C844 438.379 832.621 427 818.583 427Z" stroke="#428FDC" stroke-width="48" stroke-linecap="round" stroke-linejoin="round"/>
<path d="M640.667 477.833H589.833C576.351 477.833 563.422 483.189 553.889 492.722C544.356 502.255 539 515.185 539 528.667V884.5C539 897.982 544.356 910.911 553.889 920.444C563.422 929.978 576.351 935.333 589.833 935.333H894.833C908.315 935.333 921.245 929.978 930.778 920.444C940.311 910.911 945.667 897.982 945.667 884.5V833.667" stroke="#428FDC" stroke-width="48" stroke-linecap="round" stroke-linejoin="round"/>
<path d="M844 477.833H894.833C908.315 477.833 921.245 483.189 930.778 492.722C940.311 502.255 945.667 515.185 945.667 528.667V630.333" stroke="#428FDC" stroke-width="48" stroke-linecap="round" stroke-linejoin="round"/>
<path d="M971.083 732H716.917" stroke="#428FDC" stroke-width="48" stroke-linecap="round" stroke-linejoin="round"/>
<path d="M818.583 630.333L716.917 732L818.583 833.667" stroke="#428FDC" stroke-width="48" stroke-linecap="round" stroke-linejoin="round"/>
</g>
<defs>
<clipPath id="clip0_2095_2">
<rect width="1000" height="963.197" fill="white"/>
</clipPath>
</defs>
</svg>
